# Blender v3.0.1 OBJ File: 'untitled.blend'
# www.blender.org
o Suzanne_Suzanne.001
v 1.111498 3.072940 -0.822198
v 1.111498 1.072940 -0.822198
v 1.111498 3.072940 1.177802
v 1.111498 1.072940 1.177802
v -0.888503 3.072940 -0.822198
v -0.888503 1.072940 -0.822198
v -0.888503 3.072940 1.177803
v -0.888503 1.072940 1.177803
v -2.614031 3.072940 -0.822197
v -2.614031 1.072940 -0.822197
v -2.614031 1.072940 1.177803
v -2.614031 3.072940 1.177803
v 2.678324 3.072940 -0.822198
v 2.678324 3.072940 1.177802
v 2.678324 1.072940 1.177802
v 2.678324 1.072940 -0.822198
v -0.888503 -1.020331 1.177803
v 1.111498 -1.020331 1.177802
v 1.111498 -1.020331 -0.822198
v -0.888503 -1.020331 -0.822198
v -0.888503 -2.215539 1.177803
v 1.111498 -2.215539 1.177802
v 1.111498 -2.215539 -0.822198
v -0.888503 -2.215539 -0.822198
v -2.306937 -1.020331 -0.822198
v -2.306937 -1.020331 1.177803
v -2.306937 -2.215539 -0.822198
v -2.306937 -2.215539 1.177803
v 2.534891 -1.020331 1.177802
v 2.534892 -1.020331 -0.822198
v 2.534891 -2.215539 1.177802
v 2.534892 -2.215539 -0.822198
v 1.111498 -4.577873 1.177802
v 1.111498 -4.577873 -0.822198
v 2.534891 -4.577873 1.177802
v 2.534892 -4.577873 -0.822198
v -0.888503 -4.450211 -0.822198
v -0.888503 -4.450211 1.177803
v -2.306937 -4.450211 -0.822198
v -2.306937 -4.450211 1.177803
v 1.111498 4.309688 1.177802
v -0.888503 4.309688 1.177803
v 1.111498 4.309688 -0.822198
v -0.888503 4.309688 -0.822198
vn -1.0000 0.0000 0.0000
vn -0.0000 0.0000 -1.0000
vn 0.0000 0.0000 1.0000
vn 0.0000 -1.0000 0.0000
vn 0.0000 1.0000 0.0000
vn 1.0000 0.0000 0.0000
s off
f 5//1 7//1 42//1 44//1
f 6//2 2//2 19//2 20//2
f 4//3 3//3 7//3 8//3
f 4//4 2//4 16//4 15//4
f 6//2 5//2 1//2 2//2
f 7//5 5//5 9//5 12//5
f 11//1 12//1 9//1 10//1
f 5//2 6//2 10//2 9//2
f 6//4 8//4 11//4 10//4
f 8//3 7//3 12//3 11//3
f 16//6 13//6 14//6 15//6
f 3//3 4//3 15//3 14//3
f 2//2 1//2 13//2 16//2
f 1//5 3//5 14//5 13//5
f 20//2 19//2 23//2 24//2
f 2//6 4//6 18//6 19//6
f 8//1 6//1 20//1 17//1
f 4//3 8//3 17//3 18//3
f 24//4 23//4 22//4 21//4
f 18//3 17//3 21//3 22//3
f 20//2 24//2 27//2 25//2
f 18//3 22//3 31//3 29//3
f 26//1 25//1 27//1 28//1
f 24//6 21//6 38//6 37//6
f 17//5 20//5 25//5 26//5
f 21//3 17//3 26//3 28//3
f 30//6 29//6 31//6 32//6
f 22//1 23//1 34//1 33//1
f 19//5 18//5 29//5 30//5
f 23//2 19//2 30//2 32//2
f 33//4 34//4 36//4 35//4
f 32//6 31//6 35//6 36//6
f 23//2 32//2 36//2 34//2
f 31//3 22//3 33//3 35//3
f 37//4 38//4 40//4 39//4
f 21//3 28//3 40//3 38//3
f 27//2 24//2 37//2 39//2
f 28//1 27//1 39//1 40//1
f 43//5 44//5 42//5 41//5
f 7//3 3//3 41//3 42//3
f 1//2 5//2 44//2 43//2
f 3//6 1//6 43//6 41//6
