# Blender v3.0.1 OBJ File: 'untitled.blend'
# www.blender.org
o Icosphere_Icosphere.001
v 0.000000 -1.000000 0.000000
v 0.723607 -0.447220 0.525725
v -0.276388 -0.447220 0.850649
v -0.894426 -0.447216 0.000000
v -0.276388 -0.447220 -0.850649
v 0.723607 -0.447220 -0.525725
v 0.276388 0.447220 0.850649
v -0.723607 0.447220 0.525725
v -0.723607 0.447220 -0.525725
v 0.276388 0.447220 -0.850649
v 0.894426 0.447216 0.000000
v 0.000000 2.237565 0.000000
v -0.162456 -0.850654 0.499995
v 0.425323 -0.850654 0.309011
v 0.262869 -0.525738 0.809012
v 0.850648 -0.525736 0.000000
v 0.425323 -0.850654 -0.309011
v -0.525730 -0.850652 0.000000
v -0.688189 -0.525736 0.499997
v -0.162456 -0.850654 -0.499995
v -0.688189 -0.525736 -0.499997
v 0.262869 -0.525738 -0.809012
v 0.951058 0.000000 0.309013
v 0.951058 0.000000 -0.309013
v 0.000000 0.000000 1.000000
v 0.587786 0.000000 0.809017
v -0.951058 0.000000 0.309013
v -0.587786 0.000000 0.809017
v -0.587786 0.000000 -0.809017
v -0.951058 0.000000 -0.309013
v 0.587786 0.000000 -0.809017
v 0.000000 0.000000 -1.000000
v 0.688189 0.525736 0.499997
v -0.262869 0.525738 0.809012
v -0.850648 0.525736 0.000000
v -0.262869 0.525738 -0.809012
v 0.688189 0.525736 -0.499997
v 0.162456 0.850654 0.499995
v 0.525730 0.850652 0.000000
v -0.425323 0.850654 0.309011
v -0.425323 0.850654 -0.309011
v 0.162456 0.850654 -0.499995
v -0.337670 0.786160 -2.039240
v -0.600539 1.311897 -1.848252
v -0.925455 0.786160 -1.848257
v -0.927778 -0.603928 -1.855404
v -0.616380 -1.051148 -1.897036
v -0.339992 -0.603928 -2.046387
v -0.978251 0.680784 1.758727
v -0.653334 1.206522 1.758722
v -0.390465 0.680784 1.949710
v -0.315013 -0.545090 1.969509
v -0.591401 -0.992310 1.820158
v -0.902798 -0.545090 1.778526
v -1.334859 0.115938 2.856253
v -1.009942 0.641676 2.856248
v -0.747073 0.115938 3.047236
v -0.642213 -0.017016 2.976527
v -0.918601 -0.464236 2.827176
v -1.229998 -0.017016 2.785543
v -0.692805 0.074804 -3.132232
v -0.955673 0.600541 -2.941244
v -1.280590 0.074804 -2.941249
v -1.282912 -0.038784 -2.948395
v -0.971515 -0.486004 -2.990028
v -0.695127 -0.038784 -3.139378
vn 0.1024 -0.9435 0.3151
vn 0.7002 -0.6617 0.2680
vn -0.2680 -0.9435 0.1947
vn -0.2680 -0.9435 -0.1947
vn 0.1024 -0.9435 -0.3151
vn 0.9050 -0.3304 0.2680
vn 0.0247 -0.3304 0.9435
vn -0.8897 -0.3304 0.3151
vn -0.5746 -0.3304 -0.7488
vn 0.5346 -0.3304 -0.7779
vn 0.8026 -0.1256 0.5831
vn -0.1457 0.8818 0.4485
vn -0.9921 -0.1256 0.0000
vn -0.1487 0.8766 -0.4576
vn 0.8026 -0.1256 -0.5831
vn 0.4089 0.6617 0.6284
vn -0.4713 0.6617 0.5831
vn -0.7002 0.6617 -0.2680
vn 0.0385 0.6617 -0.7488
vn 0.7240 0.6617 -0.1947
vn 0.7735 0.2932 -0.5620
vn 0.4911 0.7947 -0.3568
vn 0.4089 0.6617 -0.6284
vn -0.2954 0.2932 -0.9093
vn -0.1876 0.7947 -0.5773
vn -0.4713 0.6617 -0.5831
vn -0.9561 0.2932 0.0000
vn -0.6071 0.7947 0.0000
vn -0.7002 0.6617 0.2680
vn -0.2954 0.2932 0.9093
vn -0.1876 0.7947 0.5773
vn 0.0385 0.6617 0.7488
vn 0.7735 0.2932 0.5620
vn 0.4911 0.7947 0.3568
vn 0.7240 0.6617 0.1947
vn 0.8897 0.3304 -0.3151
vn 0.7947 0.1876 -0.5773
vn 0.5746 0.3304 -0.7488
vn -0.0247 0.3304 -0.9435
vn -0.7054 0.4359 0.5590
vn -0.5346 0.3304 -0.7779
vn -0.9050 0.3304 -0.2680
vn -0.9822 0.1876 0.0000
vn -0.9050 0.3304 0.2680
vn -0.5346 0.3304 0.7779
vn 0.8883 0.4577 0.0372
vn -0.0247 0.3304 0.9435
vn 0.5746 0.3304 0.7488
vn 0.7947 0.1876 0.5773
vn 0.8897 0.3304 0.3151
vn 0.3066 0.1256 -0.9435
vn 0.3035 -0.1876 -0.9342
vn 0.0247 -0.3304 -0.9435
vn -0.8026 0.1256 -0.5831
vn -0.7947 -0.1876 -0.5773
vn -0.8897 -0.3304 -0.3151
vn -0.8026 0.1256 0.5831
vn -0.7947 -0.1876 0.5773
vn -0.5746 -0.3304 0.7488
vn 0.3066 0.1256 0.9435
vn 0.3035 -0.1876 0.9342
vn 0.5346 -0.3304 0.7779
vn 0.9921 0.1256 0.0000
vn 0.9822 -0.1876 0.0000
vn 0.9050 -0.3304 -0.2680
vn 0.4713 -0.6617 -0.5831
vn 0.1876 -0.7947 -0.5773
vn -0.0385 -0.6617 -0.7488
vn -0.4089 -0.6617 -0.6284
vn -0.4911 -0.7947 -0.3568
vn -0.7240 -0.6617 -0.1947
vn -0.7240 -0.6617 0.1947
vn -0.4911 -0.7947 0.3568
vn -0.4089 -0.6617 0.6284
vn 0.7002 -0.6617 -0.2680
vn 0.6071 -0.7947 0.0000
vn 0.3313 -0.9435 0.0000
vn -0.0385 -0.6617 0.7488
vn 0.1876 -0.7947 0.5773
vn 0.4713 -0.6617 0.5831
vn 0.6481 0.5246 -0.5520
vn -0.1805 -0.8117 -0.5554
vn 0.8992 0.4359 0.0376
vn -0.8488 0.5246 -0.0656
vn 0.8538 -0.5201 0.0227
vn -0.6774 -0.5201 0.5203
vn 0.6916 0.5257 0.4953
vn -0.1711 -0.8327 0.5266
vn -0.6882 0.4253 -0.5878
vn 0.1379 0.8949 -0.4245
vn -0.6805 -0.5217 -0.5145
vn 0.8530 -0.5217 -0.0162
vn -0.3035 0.1876 0.9342
vn 0.1359 -0.8982 -0.4181
vn -0.8506 0.5257 -0.0058
vn -0.3066 -0.1256 0.9435
vn -0.8216 -0.5692 0.0315
vn 0.6462 -0.5692 0.5084
vn -0.3035 0.1876 -0.9342
vn -0.3066 -0.1256 -0.9435
vn 0.6485 -0.5695 -0.5052
vn 0.1626 -0.8503 0.5006
vn 0.1364 0.8974 0.4197
vn -0.8215 -0.5695 -0.0275
s off
f 1//1 14//1 13//1
f 2//2 14//2 16//2
f 1//3 13//3 18//3
f 1//4 18//4 20//4
f 1//5 20//5 17//5
f 2//6 16//6 23//6
f 3//7 15//7 25//7
f 4//8 19//8 27//8
f 5//9 21//9 29//9
f 6//10 22//10 31//10
f 2//11 23//11 26//11
f 25//12 28//12 54//12 52//12
f 4//13 27//13 30//13
f 29//14 32//14 48//14 46//14
f 6//15 31//15 24//15
f 7//16 33//16 38//16
f 8//17 34//17 40//17
f 9//18 35//18 41//18
f 10//19 36//19 42//19
f 11//20 37//20 39//20
f 39//21 42//21 12//21
f 39//22 37//22 42//22
f 37//23 10//23 42//23
f 42//24 41//24 12//24
f 42//25 36//25 41//25
f 36//26 9//26 41//26
f 41//27 40//27 12//27
f 41//28 35//28 40//28
f 35//29 8//29 40//29
f 40//30 38//30 12//30
f 40//31 34//31 38//31
f 34//32 7//32 38//32
f 38//33 39//33 12//33
f 38//34 33//34 39//34
f 33//35 11//35 39//35
f 24//36 37//36 11//36
f 24//37 31//37 37//37
f 31//38 10//38 37//38
f 32//39 36//39 10//39
f 29//40 36//40 44//40 45//40
f 29//41 9//41 36//41
f 30//42 35//42 9//42
f 30//43 27//43 35//43
f 27//44 8//44 35//44
f 28//45 34//45 8//45
f 25//46 34//46 50//46 51//46
f 25//47 7//47 34//47
f 26//48 33//48 7//48
f 26//49 23//49 33//49
f 23//50 11//50 33//50
f 31//51 32//51 10//51
f 31//52 22//52 32//52
f 22//53 5//53 32//53
f 29//54 30//54 9//54
f 29//55 21//55 30//55
f 21//56 4//56 30//56
f 27//57 28//57 8//57
f 27//58 19//58 28//58
f 19//59 3//59 28//59
f 25//60 26//60 7//60
f 25//61 15//61 26//61
f 15//62 2//62 26//62
f 23//63 24//63 11//63
f 23//64 16//64 24//64
f 16//65 6//65 24//65
f 17//66 22//66 6//66
f 17//67 20//67 22//67
f 20//68 5//68 22//68
f 20//69 21//69 5//69
f 20//70 18//70 21//70
f 18//71 4//71 21//71
f 18//72 19//72 4//72
f 18//73 13//73 19//73
f 13//74 3//74 19//74
f 16//75 17//75 6//75
f 16//76 14//76 17//76
f 14//77 1//77 17//77
f 13//78 15//78 3//78
f 13//79 14//79 15//79
f 14//80 2//80 15//80
f 44//81 43//81 61//81 62//81
f 32//82 29//82 45//82 43//82
f 36//83 32//83 43//83 44//83
f 45//84 44//84 62//84 63//84
f 32//85 5//85 47//85 48//85
f 5//86 29//86 46//86 47//86
f 51//87 50//87 56//87 57//87
f 28//88 25//88 51//88 49//88
f 34//89 28//89 49//89 50//89
f 52//90 54//90 60//90 58//90
f 28//91 3//91 53//91 54//91
f 3//92 25//92 52//92 53//92
f 55//93 57//93 56//93
f 49//94 51//94 57//94 55//94
f 50//95 49//95 55//95 56//95
f 59//96 58//96 60//96
f 54//97 53//97 59//97 60//97
f 53//98 52//98 58//98 59//98
f 61//99 63//99 62//99
f 65//100 64//100 66//100
f 48//101 47//101 65//101 66//101
f 43//102 45//102 63//102 61//102
f 46//103 48//103 66//103 64//103
f 47//104 46//104 64//104 65//104
f 45//61 43//61 44//61
