v 0.000000 -1.000000 0.000000
v 0.723600 -0.447215 0.525720
v -0.276385 -0.447215 0.850640
v -0.894425 -0.447215 0.000000
v -0.276385 -0.447215 -0.850640
v 0.723600 -0.447215 -0.525720
v 0.276385 0.447215 0.850640
v -0.723600 0.447215 0.525720
v -0.723600 0.447215 -0.525720
v 0.276385 0.447215 -0.850640
v 0.894425 0.447215 0.000000
v 0.000000 1.000000 0.000000
v 0.282065 -0.792345 -2.569344
v 1.282050 -0.792345 -2.244424
v 0.834835 0.102085 -2.569344
v 1.292646 -0.798893 2.277036
v 0.292661 -0.798893 2.601956
v 0.845431 0.095537 2.601956
v 0.699981 0.432177 -3.855537
v 1.699966 0.432177 -3.530617
v 1.252751 1.326607 -3.855537
v 1.729381 0.413998 3.621147
v 0.729396 0.413998 3.946067
v 1.282166 1.308428 3.946067
v -0.919402 -0.655193 1.221409
v -1.492998 -0.803181 0.011039
v -0.954591 -0.765793 -1.133007
v -1.366617 0.239237 0.896489
v -1.401806 0.128637 -0.808087
vn 0.1876 -0.7947 0.5774
vn 0.6071 -0.7947 0.0000
vn -0.4911 -0.7947 0.3568
vn -0.4911 -0.7947 -0.3568
vn 0.1876 -0.7947 -0.5774
vn 0.9822 -0.1876 0.0000
vn 0.8526 0.4911 -0.1784
vn -0.4479 0.5709 0.6881
vn 0.4172 -0.8804 0.2254
vn -0.7947 0.4911 -0.3568
vn 0.7946 0.1876 0.5774
vn -0.3035 0.1876 0.9342
vn -0.9822 0.1876 0.0000
vn -0.3035 0.1876 -0.9342
vn 0.7946 0.1876 -0.5774
vn 0.4911 0.7947 0.3568
vn -0.1876 0.7947 0.5774
vn -0.6071 0.7947 0.0000
vn -0.1876 0.7947 -0.5774
vn 0.4911 0.7947 -0.3568
vn -0.8301 0.5130 0.2187
vn 0.8526 0.4911 0.1784
vn -0.0580 -0.9822 0.1784
vn 0.5609 0.5157 -0.6476
vn -0.7947 0.4911 0.3568
vn -0.0580 -0.9822 -0.1784
vn 0.3035 -0.1876 -0.9342
vn 0.5430 0.5130 0.6648
vn 0.2074 -0.7413 -0.6383
vn 0.3035 -0.1876 0.9342
vn -0.8345 0.5157 -0.1942
vn 0.2013 -0.7589 0.6194
vn -0.8572 -0.2691 0.4391
vn -0.8647 -0.2812 -0.4161
vn 0.3707 -0.9168 -0.1485
vn 0.3259 0.4625 0.8246
vn 0.1777 0.4133 -0.8931
vn -0.4663 0.5666 -0.6794
s off
f 1//1 2//1 3//1
f 2//2 1//2 6//2
f 1//3 3//3 4//3
f 1//4 4//4 5//4
f 1//5 5//5 6//5
f 2//6 6//6 11//6
f 2//7 7//7 18//7 16//7
f 4//8 9//8 29//8 26//8
f 5//9 4//9 26//9 27//9
f 5//10 10//10 15//10 13//10
f 2//11 11//11 7//11
f 3//12 7//12 8//12
f 4//13 8//13 9//13
f 5//14 9//14 10//14
f 6//15 10//15 11//15
f 7//16 11//16 12//16
f 8//17 7//17 12//17
f 9//18 8//18 12//18
f 10//19 9//19 12//19
f 11//20 10//20 12//20
f 13//21 15//21 21//21 19//21
f 10//22 6//22 14//22 15//22
f 6//23 5//23 13//23 14//23
f 16//24 18//24 24//24 22//24
f 7//25 3//25 17//25 18//25
f 3//26 2//26 16//26 17//26
f 20//27 19//27 21//27
f 15//28 14//28 20//28 21//28
f 14//29 13//29 19//29 20//29
f 23//30 22//30 24//30
f 18//31 17//31 23//31 24//31
f 17//32 16//32 22//32 23//32
f 26//33 25//33 28//33
f 27//34 26//34 29//34
f 4//35 3//35 25//35 26//35
f 3//36 8//36 28//36 25//36
f 9//37 5//37 27//37 29//37
f 8//38 4//38 26//38 28//38
